<?xml version="1.0" standalone="no"?>
<!DOCTYPE svg PUBLIC "-//W3C//DTD SVG 20010904//EN"
 "http://www.w3.org/TR/2001/REC-SVG-20010904/DTD/svg10.dtd">
<svg version="1.0" xmlns="http://www.w3.org/2000/svg"
 width="940.000000pt" height="788.000000pt" viewBox="0 0 940.000000 788.000000"
 preserveAspectRatio="xMidYMid meet">

<g transform="translate(0.000000,788.000000) scale(0.100000,-0.100000)"
fill="#000000" stroke="none">
<path d="M4825 7167 c-106 -28 -178 -91 -228 -197 -24 -53 -31 -82 -35 -156
-6 -109 7 -171 56 -274 45 -96 128 -180 221 -223 125 -59 270 -39 373 52 100
87 146 271 108 431 -19 84 -78 188 -142 253 -100 101 -234 144 -353 114z m128
-327 c49 -43 81 -121 73 -179 -3 -25 -13 -52 -21 -60 -13 -14 -19 -13 -50 3
-66 36 -111 179 -76 244 16 30 34 28 74 -8z"/>
<path d="M5637 6826 c-48 -18 -63 -30 -92 -80 -61 -104 -47 -264 28 -334 64
-60 150 -30 202 73 27 52 30 69 30 144 0 69 -5 94 -22 127 -36 67 -86 91 -146
70z"/>
<path d="M6105 6737 c-47 -22 -121 -111 -141 -169 -45 -135 0 -248 99 -248 48
0 82 18 128 67 97 101 118 263 45 332 -30 28 -91 36 -131 18z"/>
<path d="M6482 6484 c-94 -47 -162 -151 -162 -250 0 -50 3 -59 34 -90 28 -28
42 -34 75 -34 160 0 316 225 241 348 -36 58 -104 68 -188 26z"/>
<path d="M5485 6269 c-157 -13 -301 -67 -416 -155 -67 -51 -107 -101 -148
-184 -44 -87 -56 -145 -56 -265 0 -187 50 -295 230 -500 157 -179 163 -191
121 -271 -36 -70 -68 -103 -181 -187 -118 -87 -169 -141 -202 -213 -75 -165
-35 -385 94 -512 65 -63 110 -87 210 -113 379 -96 933 157 1258 576 255 330
353 743 259 1100 -63 243 -243 446 -521 588 -211 108 -433 154 -648 136z m255
-321 c171 -29 369 -136 493 -267 110 -115 154 -258 144 -463 -10 -208 -94
-418 -238 -598 -124 -154 -252 -259 -425 -347 -213 -109 -413 -146 -526 -96
-54 24 -74 51 -84 110 -11 69 7 94 125 182 131 97 205 175 253 267 52 100 72
175 65 249 -11 118 -51 187 -216 379 -133 154 -161 207 -161 303 0 228 225
340 570 281z"/>
<path d="M6783 6171 c-57 -26 -128 -93 -153 -145 -11 -25 -20 -62 -20 -90 0
-41 5 -53 34 -82 28 -28 41 -34 78 -34 67 0 132 27 188 77 108 97 129 221 48
277 -31 22 -123 20 -175 -3z"/>
<path d="M4249 6079 c-108 -17 -243 -125 -307 -246 -102 -194 -72 -447 67
-562 227 -189 567 -22 635 311 20 98 20 143 -1 225 -47 188 -210 301 -394 272z
m88 -330 c30 -58 -4 -181 -62 -227 -55 -44 -85 -20 -85 65 0 63 40 144 83 172
38 24 48 23 64 -10z"/>
<path d="M3471 5711 c-80 -75 -89 -236 -20 -347 47 -76 133 -96 193 -44 92 82
88 279 -9 376 -39 39 -50 44 -89 44 -35 0 -50 -6 -75 -29z"/>
<path d="M3004 5645 c-47 -24 -67 -67 -67 -144 1 -84 29 -150 90 -213 58 -58
113 -77 166 -55 46 20 67 53 74 119 7 66 -7 117 -49 187 -57 93 -148 139 -214
106z"/>
<path d="M2605 5413 c-53 -13 -93 -92 -79 -156 17 -81 95 -181 168 -217 55
-26 125 -26 159 0 70 56 55 183 -34 285 -57 64 -153 104 -214 88z"/>
<path d="M3436 5165 c-358 -68 -694 -300 -822 -570 -151 -315 -102 -772 121
-1125 213 -338 604 -615 982 -695 87 -19 258 -22 341 -5 255 49 410 299 348
561 -24 105 -79 175 -216 276 -107 80 -158 131 -187 188 -45 87 -40 99 111
270 112 127 161 198 195 280 92 221 45 475 -118 636 -75 74 -204 145 -316 175
-85 23 -336 28 -439 9z m346 -306 c171 -37 262 -135 262 -284 1 -97 -30 -155
-154 -297 -175 -198 -222 -286 -221 -413 0 -171 99 -325 305 -479 64 -48 120
-95 126 -106 14 -27 12 -95 -4 -135 -10 -22 -29 -42 -58 -57 -37 -20 -56 -23
-148 -22 -90 1 -118 5 -200 33 -187 63 -385 185 -519 320 -94 94 -152 173
-215 292 -180 342 -163 695 42 893 37 36 86 78 109 95 86 62 236 127 368 159
56 14 244 14 307 1z"/>
<path d="M2274 5090 c-12 -4 -31 -21 -43 -36 -63 -80 20 -244 153 -305 51 -23
143 -25 174 -3 29 20 52 65 52 101 0 75 -92 192 -183 234 -44 19 -117 24 -153
9z"/>
<path d="M6475 3143 c-157 -96 -368 -268 -560 -455 l-152 -148 -49 117 c-42
100 -54 119 -77 128 -39 13 -81 -11 -85 -48 -2 -17 19 -85 53 -171 l57 -143
-72 -89 c-77 -95 -265 -371 -275 -404 -4 -11 -10 -20 -15 -20 -4 0 -61 91
-126 201 -65 111 -129 208 -141 216 -38 25 -93 -6 -93 -54 0 -16 57 -123 140
-263 77 -131 140 -243 140 -249 0 -6 -12 -35 -26 -64 -15 -29 -62 -143 -106
-255 -43 -112 -92 -230 -108 -262 -125 -247 -336 -455 -572 -564 -183 -85
-361 -125 -591 -133 -137 -5 -161 -9 -183 -26 -53 -42 -51 -117 4 -149 59 -35
262 -32 482 8 337 62 659 250 870 509 114 140 198 299 289 540 33 88 71 186
85 218 30 68 -13 62 383 46 149 -6 282 -9 295 -6 49 13 56 91 11 115 -10 5
-103 12 -208 16 -104 4 -234 9 -287 12 l-97 7 23 46 c67 131 307 461 337 461
8 0 104 -18 212 -40 209 -42 235 -42 257 0 18 34 4 70 -33 84 -18 7 -97 26
-177 41 -80 15 -149 31 -153 35 -4 3 66 78 155 166 153 150 375 331 510 417
31 20 62 45 67 56 20 37 13 81 -18 112 -42 42 -89 40 -166 -8z"/>
</g>
</svg>
